<svg xmlns="http://www.w3.org/2000/svg" version="1.1" xmlns:xlink="http://www.w3.org/1999/xlink" xmlns:svgjs="http://svgjs.dev/svgjs" width="1440" height="560" preserveAspectRatio="none" viewBox="0 0 1440 560"><g mask="url(&quot;#SvgjsMask1007&quot;)" fill="none"><rect width="1440" height="560" x="0" y="0" fill="rgba(54, 54, 54, 1)"></rect><path d="M0,363.03C78.698,368.566,159.175,391.443,231.873,360.801C310.273,327.755,398.334,272.524,413.385,188.786C428.839,102.806,318.812,42.4,304.596,-43.794C290.876,-126.983,372.616,-214.623,334.452,-289.804C296.719,-364.136,199.856,-384.762,119.768,-407.891C39.962,-430.939,-45.114,-448.317,-123.967,-422.194C-201.701,-396.442,-253.709,-328.194,-307.41,-266.372C-361.173,-204.478,-423.758,-143.751,-436.219,-62.719C-448.722,18.589,-415.53,99.705,-374.684,171.112C-336.295,238.223,-280.626,294.341,-211.813,329.588C-146.879,362.848,-72.777,357.91,0,363.03" fill="#2b2b2b"></path><path d="M1440 1081.88C1535.718 1061.743 1622.627 1024.914 1707.1979999999999 975.769 1795.536 924.435 1883.377 872.7139999999999 1942.875 789.655 2011.129 694.373 2090.728 584.775 2069.902 469.43399999999997 2049.098 354.21500000000003 1917.228 301.376 1838.9850000000001 214.277 1762.531 129.17000000000002 1722.837 2.08299999999997 1615.212-36.716999999999985 1506.532-75.89800000000002 1390.847-17.33699999999999 1279.234 12.480000000000018 1164.729 43.07000000000005 1040.8319999999999 58.02699999999999 954.924 139.67899999999997 865.401 224.76799999999997 806.298 344.63300000000004 799.992 467.981 793.903 587.093 872.065 688.251 921.328 796.87 970.7370000000001 905.81 984.418 1048.164 1089.254 1105.771 1194.079 1163.3719999999998 1322.953 1106.504 1440 1081.88" fill="#414141"></path></g><defs><mask id="SvgjsMask1007"><rect width="1440" height="560" fill="#ffffff"></rect></mask></defs></svg>